<svg xmlns="http://www.w3.org/2000/svg" width="17" height="26" viewBox="0 0 17 26">
    <g fill="#76A9B0" fill-rule="nonzero">
        <path d="M2.26 15.803c1.12.329 2.41-.46 3.484-1.898.23-.31.072-.74-.299-.856l-4.39-1.283a.559.559 0 0 0-.716.565c.115 1.792.803 3.143 1.922 3.472zM6.407 11.217c.551.16 1.15-.133 1.352-.688.31-.85.744-1.774 1.262-2.765 1.196-2.259 1.762-5.651-1.15-6.888C4.31-.636 2.018 3.72 1.218 6.457a13.37 13.37 0 0 0-.44 2.18 1.1 1.1 0 0 0 .793 1.173l4.836 1.407zM11.942 22.807l-4.188-1.839c-.358-.15-.756.079-.778.464-.12 1.785.38 3.225 1.448 3.693 1.068.467 2.447-.132 3.704-1.425a.564.564 0 0 0-.186-.893zM13.721 10.084c-3.026-.924-4.772 2.038-5.308 4.537a27.576 27.576 0 0 1-.81 2.93 1.111 1.111 0 0 0 .592 1.395l4.592 2.025a1.1 1.1 0 0 0 1.36-.39c.39-.585.765-1.235 1.065-1.952 1.164-2.604 2.207-7.415-1.49-8.545z"/>
    </g>
</svg>
